<svg width="108" height="92" viewBox="0 0 108 92" fill="none" xmlns="http://www.w3.org/2000/svg">
<g opacity="0.42">
<path d="M10.1097 16.7676V12.9104H11.4581C11.7268 12.9104 11.9485 12.9569 12.123 13.0498C12.2975 13.1415 12.4275 13.2651 12.5128 13.4208C12.5982 13.5753 12.6409 13.7467 12.6409 13.935C12.6409 14.1007 12.6114 14.2376 12.5524 14.3456C12.4946 14.4535 12.418 14.5389 12.3226 14.6017C12.2284 14.6645 12.1261 14.7109 12.0156 14.7411V14.7787C12.1336 14.7863 12.2523 14.8277 12.3716 14.903C12.4909 14.9784 12.5907 15.0864 12.671 15.227C12.7514 15.3676 12.7916 15.5396 12.7916 15.743C12.7916 15.9364 12.7476 16.1103 12.6597 16.2647C12.5718 16.4192 12.4331 16.5416 12.2435 16.632C12.0539 16.7224 11.8072 16.7676 11.5033 16.7676H10.1097ZM10.5767 16.3532H11.5033C11.8085 16.3532 12.025 16.2942 12.1531 16.1762C12.2824 16.0569 12.3471 15.9125 12.3471 15.743C12.3471 15.6124 12.3138 15.4919 12.2473 15.3814C12.1807 15.2697 12.0859 15.1805 11.9629 15.114C11.8398 15.0462 11.6942 15.0123 11.5259 15.0123H10.5767V16.3532ZM10.5767 14.6055H11.4431C11.5837 14.6055 11.7105 14.5778 11.8235 14.5226C11.9378 14.4674 12.0282 14.3895 12.0947 14.2891C12.1625 14.1886 12.1964 14.0706 12.1964 13.935C12.1964 13.7655 12.1374 13.6217 12.0194 13.5037C11.9014 13.3844 11.7143 13.3248 11.4581 13.3248H10.5767V14.6055ZM13.559 16.7676V12.9104H15.8869V13.3248H14.0261V14.6281H15.7664V15.0424H14.0261V16.3532H15.917V16.7676H13.559ZM16.7288 16.7676V12.9104H19.0415V13.3248H17.1958V14.6281H18.8683V15.0424H17.1958V16.7676H16.7288ZM23.096 14.839C23.096 15.2458 23.0225 15.5974 22.8756 15.8937C22.7287 16.19 22.5272 16.4185 22.271 16.5792C22.0149 16.74 21.7224 16.8203 21.3934 16.8203C21.0644 16.8203 20.7719 16.74 20.5157 16.5792C20.2596 16.4185 20.0581 16.19 19.9112 15.8937C19.7643 15.5974 19.6908 15.2458 19.6908 14.839C19.6908 14.4322 19.7643 14.0806 19.9112 13.7843C20.0581 13.488 20.2596 13.2595 20.5157 13.0988C20.7719 12.9381 21.0644 12.8577 21.3934 12.8577C21.7224 12.8577 22.0149 12.9381 22.271 13.0988C22.5272 13.2595 22.7287 13.488 22.8756 13.7843C23.0225 14.0806 23.096 14.4322 23.096 14.839ZM22.644 14.839C22.644 14.505 22.5881 14.2231 22.4763 13.9934C22.3658 13.7636 22.2158 13.5897 22.0262 13.4717C21.8379 13.3537 21.6269 13.2946 21.3934 13.2946C21.1599 13.2946 20.9483 13.3537 20.7587 13.4717C20.5704 13.5897 20.4203 13.7636 20.3086 13.9934C20.1981 14.2231 20.1428 14.505 20.1428 14.839C20.1428 15.173 20.1981 15.4549 20.3086 15.6846C20.4203 15.9144 20.5704 16.0883 20.7587 16.2063C20.9483 16.3244 21.1599 16.3834 21.3934 16.3834C21.6269 16.3834 21.8379 16.3244 22.0262 16.2063C22.2158 16.0883 22.3658 15.9144 22.4763 15.6846C22.5881 15.4549 22.644 15.173 22.644 14.839ZM23.8813 16.7676V12.9104H25.1846C25.486 12.9104 25.7333 12.9619 25.9267 13.0649C26.12 13.1666 26.2632 13.3066 26.3561 13.4849C26.449 13.6632 26.4954 13.8659 26.4954 14.0932C26.4954 14.3205 26.449 14.522 26.3561 14.6978C26.2632 14.8735 26.1207 15.0116 25.9286 15.1121C25.7365 15.2113 25.491 15.2609 25.1922 15.2609H24.1375V14.839H25.1771C25.383 14.839 25.5487 14.8089 25.6743 14.7486C25.8011 14.6883 25.8928 14.603 25.9493 14.4925C26.007 14.3807 26.0359 14.2476 26.0359 14.0932C26.0359 13.9388 26.007 13.8038 25.9493 13.6883C25.8915 13.5728 25.7992 13.4836 25.6724 13.4208C25.5456 13.3568 25.378 13.3248 25.1696 13.3248H24.3484V16.7676H23.8813ZM25.6969 15.0349L26.6461 16.7676H26.1037L25.1696 15.0349H25.6969ZM27.2738 16.7676V12.9104H29.6016V13.3248H27.7408V14.6281H29.4811V15.0424H27.7408V16.3532H29.6317V16.7676H27.2738Z" fill="#94A3B8"/>
<path d="M13.5 30.5703H25.0714" stroke="#94A3B8" stroke-width="0.723214"/>
<path d="M32.7856 30.5703H44.3571" stroke="#94A3B8" stroke-width="0.723214"/>
<path d="M52.0713 30.5703H63.6427" stroke="#94A3B8" stroke-width="0.723214"/>
<path d="M71.3569 30.5703H82.9284" stroke="#94A3B8" stroke-width="0.723214"/>
<path d="M9.64279 34.4291C11.773 34.4291 13.4999 32.7022 13.4999 30.572C13.4999 28.4417 11.773 26.7148 9.64279 26.7148C7.51255 26.7148 5.78564 28.4417 5.78564 30.572C5.78564 32.7022 7.51255 34.4291 9.64279 34.4291Z" fill="white" stroke="#94A3B8" stroke-width="0.964286"/>
<path d="M28.9284 34.4291C31.0587 34.4291 32.7856 32.7022 32.7856 30.572C32.7856 28.4417 31.0587 26.7148 28.9284 26.7148C26.7982 26.7148 25.0713 28.4417 25.0713 30.572C25.0713 32.7022 26.7982 34.4291 28.9284 34.4291Z" fill="white" stroke="#94A3B8" stroke-width="0.964286"/>
<path d="M48.2141 34.4291C50.3443 34.4291 52.0712 32.7022 52.0712 30.572C52.0712 28.4417 50.3443 26.7148 48.2141 26.7148C46.0838 26.7148 44.3569 28.4417 44.3569 30.572C44.3569 32.7022 46.0838 34.4291 48.2141 34.4291Z" fill="white" stroke="#94A3B8" stroke-width="0.964286"/>
<path d="M67.4997 34.4291C69.63 34.4291 71.3569 32.7022 71.3569 30.572C71.3569 28.4417 69.63 26.7148 67.4997 26.7148C65.3695 26.7148 63.6426 28.4417 63.6426 30.572C63.6426 32.7022 65.3695 34.4291 67.4997 34.4291Z" fill="white" stroke="#94A3B8" stroke-width="0.964286"/>
<path d="M86.7859 34.4291C88.9161 34.4291 90.643 32.7022 90.643 30.572C90.643 28.4417 88.9161 26.7148 86.7859 26.7148C84.6556 26.7148 82.9287 28.4417 82.9287 30.572C82.9287 32.7022 84.6556 34.4291 86.7859 34.4291Z" fill="white" stroke="#94A3B8" stroke-width="0.964286"/>
</g>
<g opacity="0.35">
<path d="M17.3569 35.3926V55.6426" stroke="#1970C8" stroke-width="0.723214" stroke-dasharray="1.93 1.93"/>
<path d="M17.3569 35.3926V47.4453" stroke="#1970C8" stroke-width="0.723214" stroke-dasharray="1.93 1.93"/>
<path d="M52.0713 35.3926V55.6426" stroke="#1970C8" stroke-width="0.723214" stroke-dasharray="1.93 1.93"/>
<path d="M86.7856 35.3926V55.6426" stroke="#1970C8" stroke-width="0.723214" stroke-dasharray="1.93 1.93"/>
</g>
<rect width="17" height="6" transform="translate(9.64307 48.4102)" fill="white"/>
<path d="M10.2683 53.4102H9.77867L11.195 49.553H11.6771L13.0934 53.4102H12.6037L11.4511 50.1632H11.421L10.2683 53.4102ZM10.4491 51.9035H12.4229V52.3178H10.4491V51.9035ZM13.6942 53.4102V49.553H16.007V49.9674H14.1613V51.2706H15.8337V51.685H14.1613V53.4102H13.6942ZM16.596 49.9674V49.553H19.4889V49.9674H18.276V53.4102H17.8089V49.9674H16.596ZM20.2097 53.4102V49.553H22.5376V49.9674H20.6768V51.2706H22.417V51.685H20.6768V52.9958H22.5677V53.4102H20.2097ZM23.3794 53.4102V49.553H24.6827C24.9841 49.553 25.2314 49.6045 25.4248 49.7074C25.6181 49.8092 25.7613 49.9491 25.8542 50.1274C25.9471 50.3057 25.9935 50.5085 25.9935 50.7358C25.9935 50.963 25.9471 51.1646 25.8542 51.3403C25.7613 51.5161 25.6188 51.6542 25.4267 51.7547C25.2345 51.8539 24.9891 51.9035 24.6903 51.9035H23.6356V51.4816H24.6752C24.8811 51.4816 25.0468 51.4515 25.1724 51.3912C25.2992 51.3309 25.3909 51.2455 25.4474 51.135C25.5051 51.0233 25.534 50.8902 25.534 50.7358C25.534 50.5813 25.5051 50.4464 25.4474 50.3308C25.3896 50.2153 25.2973 50.1262 25.1705 50.0634C25.0437 49.9994 24.8761 49.9674 24.6677 49.9674H23.8465V53.4102H23.3794ZM25.195 51.6775L26.1442 53.4102H25.6018L24.6677 51.6775H25.195Z" fill="#1970C8"/>
<path opacity="0.35" d="M23.1431 63.3555H46.2859" stroke="#1970C8" stroke-width="0.964286"/>
<path opacity="0.55" d="M33.2681 61.4277L36.6431 63.3563L33.2681 65.2849" stroke="#1970C8" stroke-width="0.723214" stroke-linecap="round" stroke-linejoin="round"/>
<path opacity="0.35" d="M57.8574 63.3555H81.0003" stroke="#1970C8" stroke-width="0.964286"/>
<path opacity="0.55" d="M67.9824 61.4277L71.3574 63.3563L67.9824 65.2849" stroke="#1970C8" stroke-width="0.723214" stroke-linecap="round" stroke-linejoin="round"/>
<path d="M17.3576 68.178C20.0204 68.178 22.179 66.0194 22.179 63.3566C22.179 60.6938 20.0204 58.5352 17.3576 58.5352C14.6948 58.5352 12.5361 60.6938 12.5361 63.3566C12.5361 66.0194 14.6948 68.178 17.3576 68.178Z" fill="#EBF3FC" stroke="#1970C8" stroke-width="1.20536"/>
<path d="M52.0718 69.1417C55.2672 69.1417 57.8576 66.5514 57.8576 63.356C57.8576 60.1607 55.2672 57.5703 52.0718 57.5703C48.8765 57.5703 46.2861 60.1607 46.2861 63.356C46.2861 66.5514 48.8765 69.1417 52.0718 69.1417Z" fill="#1970C8" stroke="#1970C8" stroke-width="1.6875"/>
<path d="M86.7858 68.178C89.4486 68.178 91.6072 66.0194 91.6072 63.3566C91.6072 60.6938 89.4486 58.5352 86.7858 58.5352C84.123 58.5352 81.9644 60.6938 81.9644 63.3566C81.9644 66.0194 84.123 68.178 86.7858 68.178Z" fill="#EBF3FC" stroke="#1970C8" stroke-width="1.20536"/>
<path d="M52.0716 65.2849C53.1368 65.2849 54.0002 64.4214 54.0002 63.3563C54.0002 62.2912 53.1368 61.4277 52.0716 61.4277C51.0065 61.4277 50.1431 62.2912 50.1431 63.3563C50.1431 64.4214 51.0065 65.2849 52.0716 65.2849Z" fill="white"/>
</svg>
